<svg width="14" height="14" viewBox="0 0 14 14" fill="none" xmlns="http://www.w3.org/2000/svg">
<path d="M9.89962 1.57861H3.49737C2.32362 1.57861 1.36328 2.53895 1.36328 3.7127V10.115C1.36328 11.2887 2.32362 12.249 3.49737 12.249H9.89962C11.0734 12.249 12.0337 11.2887 12.0337 10.115V3.7127C12.0337 2.53895 11.0734 1.57861 9.89962 1.57861ZM6.69849 9.58143C5.23131 9.58143 4.03089 8.38101 4.03089 6.91382C4.03089 5.44664 5.23131 4.24622 6.69849 4.24622C8.16567 4.24622 9.3661 5.44664 9.3661 6.91382C9.3661 8.38101 8.16567 9.58143 6.69849 9.58143ZM9.63286 4.51298C9.33942 4.51298 9.09934 4.27289 9.09934 3.97946C9.09934 3.68602 9.33942 3.44594 9.63286 3.44594C9.92629 3.44594 10.1664 3.68602 10.1664 3.97946C10.1664 4.27289 9.92629 4.51298 9.63286 4.51298Z" fill="white"/>
</svg>
