<svg width="12" height="12" viewBox="0 0 12 12" fill="none" xmlns="http://www.w3.org/2000/svg">
<path fill-rule="evenodd" clip-rule="evenodd" d="M11.2777 11.2679H9.20455V7.64046C9.20455 6.64537 8.76557 6.09018 7.97831 6.09018C7.12159 6.09018 6.61316 6.66869 6.61316 7.64046V11.2679H4.54005V4.53029H6.61316V5.28796C6.61316 5.28796 7.2636 4.14664 8.72929 4.14664C10.1955 4.14664 11.2777 5.04136 11.2777 6.89265V11.2679ZM2.17774 3.45274C1.47859 3.45274 0.912109 2.88163 0.912109 2.17729C0.912109 1.47347 1.47859 0.902344 2.17774 0.902344C2.87638 0.902344 3.44286 1.47347 3.44286 2.17729C3.44338 2.88163 2.87638 3.45274 2.17774 3.45274ZM0.912109 11.2679H3.5035V4.53029H0.912109V11.2679Z" fill="white"/>
<path fill-rule="evenodd" clip-rule="evenodd" d="M0.919095 2.04257C0.914477 2.08684 0.91211 2.13179 0.91211 2.17729C0.91211 2.17791 0.912109 2.17853 0.91211 2.17915C0.913107 2.88263 1.4792 3.45274 2.17774 3.45274C2.4642 3.45274 2.72852 3.35672 2.94067 3.19488C3.24593 2.96201 3.44316 2.59283 3.44286 2.17729C3.44286 1.47347 2.87638 0.902344 2.17774 0.902344C1.52379 0.902344 0.985908 1.40201 0.919095 2.04257ZM3.5035 4.53029H0.91211V11.2679H3.5035V4.53029ZM4.54005 11.2679H6.61316V7.64046C6.61316 7.35592 6.65675 7.10511 6.73991 6.89265C6.94076 6.37951 7.37244 6.09018 7.97831 6.09018C7.99292 6.09018 8.00742 6.09037 8.0218 6.09076C8.02178 6.09076 8.02181 6.09076 8.0218 6.09076C8.3064 6.09833 8.54375 6.18061 8.72929 6.33189C8.83053 6.41444 8.91635 6.51753 8.98601 6.64024C8.986 6.64021 8.98603 6.64027 8.98601 6.64024C9.02947 6.71679 9.06669 6.80106 9.0974 6.89265C9.16811 7.10356 9.20455 7.35375 9.20455 7.64046V11.2679H11.2777V6.89265C11.2777 6.23965 11.143 5.70566 10.9044 5.28796C10.7211 4.96725 10.4766 4.7151 10.1846 4.53029C9.89896 4.34953 9.56796 4.23318 9.20455 4.18011C9.05155 4.15777 8.89281 4.14664 8.72929 4.14664C8.44967 4.14664 8.19973 4.18818 7.97831 4.25541C7.74832 4.32524 7.54911 4.42278 7.37939 4.53029C6.85604 4.86179 6.61316 5.28796 6.61316 5.28796V4.53029H4.54005V11.2679Z" fill="white"/>
</svg>
