<svg width="107" height="19" viewBox="0 0 107 19" fill="none" xmlns="http://www.w3.org/2000/svg">
<path d="M9.6625 18.6916C6.80728 18.6916 4.48595 17.8129 2.69273 16.0613C0.893709 14.304 0 12.0617 0 9.34581C0 6.74975 0.916922 4.54167 2.75657 2.72729C4.59622 0.907194 6.88852 0 9.63348 0C11.2294 0 12.5758 0.205402 13.6784 0.610501C14.781 1.0156 15.8372 1.63751 16.8528 2.48194L14.3051 5.50022C13.5333 4.86119 12.7905 4.39903 12.0767 4.10805C11.3571 3.81706 10.504 3.66871 9.50581 3.66871C8.03758 3.66871 6.78987 4.22216 5.76268 5.33475C4.7413 6.44165 4.22481 7.78247 4.22481 9.34581C4.22481 10.9947 4.7471 12.3641 5.78589 13.4481C6.82469 14.5322 8.16525 15.0742 9.79017 15.0742C11.2932 15.0742 12.5642 14.7148 13.5971 13.9902V11.4112H9.52903V7.97646H17.5086V15.8217C15.2163 17.7331 12.6048 18.6916 9.6625 18.6916Z" fill="white"/>
<path d="M38.8696 15.97C37.0067 17.7844 34.6738 18.6916 31.8766 18.6916C29.0736 18.6916 26.7523 17.7901 24.9068 15.9814C23.0614 14.1728 22.1387 11.9647 22.1387 9.34581C22.1387 6.74975 23.0672 4.54167 24.9359 2.72158C26.7929 0.907194 29.1259 0 31.9288 0C34.7318 0 37.0532 0.907194 38.8986 2.71017C40.7441 4.51885 41.6668 6.72693 41.6668 9.34581C41.6668 11.9419 40.7325 14.1499 38.8696 15.97ZM27.9362 13.374C28.9866 14.4752 30.3155 15.0286 31.9288 15.0286C33.5364 15.0286 34.8595 14.4809 35.8925 13.3911C36.9255 12.3013 37.442 10.9548 37.442 9.35151C37.442 7.76535 36.9139 6.42453 35.8693 5.32334C34.8189 4.22216 33.4899 3.67442 31.8766 3.67442C30.2633 3.67442 28.9459 4.22216 27.913 5.31193C26.88 6.40741 26.3635 7.75394 26.3635 9.35151C26.3577 10.9263 26.8858 12.2728 27.9362 13.374Z" fill="white"/>
<path d="M45.9395 19V0.30835H49.1719V16.0017H58.8344V19H45.9395Z" fill="white"/>
<path d="M61.8496 18.8684L69.9394 0.176758H72.9397L81.0179 18.8684H77.6114L75.7543 14.3918H67.061L65.1633 18.8684H61.8496ZM68.2332 11.5031H74.5704L71.3902 4.07329L68.2332 11.5031Z" fill="white"/>
<path d="M79.5918 0.309683H83.0796L87.4669 14.0332L91.9761 0.25708H94.7094L99.236 14.0332L103.617 0.309683H107.001L100.594 18.9487H97.8084L93.2992 5.65181L88.7842 18.9487H85.9928L79.5918 0.309683Z" fill="white"/>
</svg>
