<svg width="12" height="11" viewBox="0 0 12 11" fill="none" xmlns="http://www.w3.org/2000/svg">
<path d="M10.5881 1.02394L0.824714 4.76047C0.165832 4.99771 0.165832 5.41288 0.704917 5.5315L3.16075 6.30254L4.11912 9.14942C4.23892 9.44597 4.17902 9.56459 4.47851 9.56459C4.7181 9.56459 4.8379 9.44597 4.9577 9.32735C5.0176 9.26804 5.55668 8.73425 6.15566 8.14115L8.67139 9.97976C9.15058 10.217 9.45007 10.0984 9.56987 9.56459L11.247 1.79497C11.4267 1.14256 11.0074 0.786698 10.5881 1.02394ZM9.33028 2.80324L4.65821 7.01426L4.47851 8.97149L3.52014 6.12461L9.03078 2.68462C9.27038 2.50669 9.50997 2.62531 9.33028 2.80324Z" fill="white"/>
</svg>
