<svg width="14" height="11" viewBox="0 0 14 11" fill="none" xmlns="http://www.w3.org/2000/svg">
<path fill-rule="evenodd" clip-rule="evenodd" d="M5.36842 7.26153V3.56709C6.67995 4.18423 7.69573 4.7804 8.89709 5.42315C7.90623 5.97267 6.67995 6.58924 5.36842 7.26153ZM12.6776 1.72968C12.4514 1.43161 12.0658 1.19959 11.6553 1.12278C10.4487 0.893645 2.9211 0.892993 1.71515 1.12278C1.38595 1.18449 1.09282 1.33366 0.841001 1.56542C-0.22003 2.55021 0.112447 7.83138 0.368196 8.68685C0.475742 9.05713 0.61477 9.32418 0.78986 9.49947C1.01544 9.73123 1.3243 9.8908 1.67907 9.96236C2.67256 10.1679 7.79082 10.2828 11.6343 9.99322C11.9884 9.93151 12.3018 9.7668 12.5491 9.52519C13.5301 8.54433 13.4632 2.96658 12.6776 1.72968Z" fill="white"/>
</svg>
