<svg width="285" height="150" viewBox="0 0 285 150" fill="none" xmlns="http://www.w3.org/2000/svg">
<path d="M284.999 145.513V149.542H261.445V117.123H284.35V121.152H266.082V131.109H282.356V135.046H266.082V145.513H284.999Z" fill="white"/>
<path d="M245.233 149.912C241.988 149.912 239.051 149.202 236.424 147.782C233.827 146.331 231.787 144.355 230.304 141.854C228.82 139.322 228.078 136.482 228.078 133.332C228.078 130.183 228.82 127.358 230.304 124.857C231.787 122.325 233.843 120.349 236.47 118.929C239.098 117.478 242.034 116.752 245.28 116.752C247.814 116.752 250.133 117.184 252.235 118.049C254.337 118.883 256.129 120.133 257.613 121.8L254.599 124.718C252.157 122.155 249.113 120.874 245.465 120.874C243.054 120.874 240.875 121.414 238.928 122.495C236.98 123.576 235.45 125.073 234.338 126.987C233.256 128.871 232.715 130.986 232.715 133.332C232.715 135.679 233.256 137.809 234.338 139.724C235.45 141.607 236.98 143.089 238.928 144.17C240.875 145.25 243.054 145.791 245.465 145.791C249.082 145.791 252.127 144.494 254.599 141.9L257.613 144.818C256.129 146.485 254.321 147.751 252.188 148.616C250.086 149.48 247.768 149.912 245.233 149.912Z" fill="white"/>
<path d="M223.789 117.123V149.542H219.987L200.514 125.366V149.542H195.877V117.123H199.679L219.153 141.298V117.123H223.789Z" fill="white"/>
<path d="M191.614 145.513V149.542H168.061V117.123H190.965V121.152H172.697V131.109H188.972V135.046H172.697V145.513H191.614Z" fill="white"/>
<path d="M142.387 117.123H147.023V145.513H164.596V149.542H142.387V117.123Z" fill="white"/>
<path d="M116.711 117.123H121.348V145.513H138.92V149.542H116.711V117.123Z" fill="white"/>
<path d="M112.913 145.513V149.542H89.3594V117.123H112.264V121.152H93.996V131.109H110.27V135.046H93.996V145.513H112.913Z" fill="white"/>
<path d="M72.6827 149.912C69.4371 149.912 66.5006 149.202 63.8732 147.782C61.2767 146.331 59.2366 144.355 57.7529 141.854C56.2692 139.322 55.5273 136.482 55.5273 133.332C55.5273 130.183 56.2692 127.358 57.7529 124.857C59.2366 122.325 61.2922 120.349 63.9195 118.929C66.5469 117.478 69.4834 116.752 72.729 116.752C75.2637 116.752 77.582 117.184 79.6839 118.049C81.7858 118.883 83.5786 120.133 85.0623 121.8L82.0486 124.718C79.6066 122.155 76.5619 120.874 72.9145 120.874C70.5035 120.874 68.3243 121.414 66.3769 122.495C64.4296 123.576 62.8995 125.073 61.7867 126.987C60.7049 128.871 60.1639 130.986 60.1639 133.332C60.1639 135.679 60.7049 137.809 61.7867 139.724C62.8995 141.607 64.4296 143.089 66.3769 144.17C68.3243 145.25 70.5035 145.791 72.9145 145.791C76.531 145.791 79.5757 144.494 82.0486 141.9L85.0623 144.818C83.5786 146.485 81.7704 147.751 79.6375 148.616C77.5356 149.48 75.2173 149.912 72.6827 149.912Z" fill="white"/>
<path d="M52.7232 149.542L42.9864 136.157L33.3887 149.542H28.0566L40.2508 132.915L28.7985 117.123H34.0842L43.1719 129.581L52.1668 117.123H57.2207L45.7684 132.776L58.0553 149.542H52.7232Z" fill="white"/>
<path d="M25.6417 145.513V149.542H2.08789V117.123H24.9926V121.152H6.72447V131.109H22.9989V135.046H6.72447V145.513H25.6417Z" fill="white"/>
<path d="M198.715 78.0815H203.351V106.472H220.924V110.501H198.715V78.0815Z" fill="white"/>
<path d="M187.289 102.396H170.041L166.471 110.501H161.695L176.393 78.0815H180.983L195.728 110.501H190.859L187.289 102.396ZM185.666 98.6909L178.665 82.8055L171.664 98.6909H185.666Z" fill="white"/>
<path d="M155.138 94.1058H159.589V106.749C157.982 108.077 156.112 109.096 153.979 109.806C151.846 110.516 149.621 110.871 147.302 110.871C144.026 110.871 141.074 110.161 138.446 108.741C135.819 107.29 133.748 105.314 132.233 102.813C130.75 100.281 130.008 97.4404 130.008 94.2911C130.008 91.1418 130.75 88.3012 132.233 85.7694C133.748 83.2376 135.819 81.2616 138.446 79.8413C141.105 78.4211 144.088 77.7109 147.395 77.7109C149.991 77.7109 152.341 78.1432 154.443 79.0077C156.575 79.8413 158.384 81.0764 159.867 82.7128L156.993 85.5842C154.396 83.0833 151.259 81.8328 147.58 81.8328C145.108 81.8328 142.882 82.3731 140.904 83.4538C138.956 84.5035 137.426 85.9856 136.314 87.8998C135.201 89.7832 134.644 91.9137 134.644 94.2911C134.644 96.6376 135.201 98.768 136.314 100.682C137.426 102.566 138.956 104.048 140.904 105.128C142.882 106.209 145.092 106.749 147.534 106.749C150.44 106.749 152.974 106.055 155.138 104.665V94.1058Z" fill="white"/>
<path d="M127.13 106.472V110.501H103.576V78.0815H126.481V82.1108H108.213V92.0681H124.487V96.0048H108.213V106.472H127.13Z" fill="white"/>
<path d="M77.9023 78.0815H82.5389V106.472H100.112V110.501H77.9023V78.0815Z" fill="white"/>
<path d="M43.4374 82.1108V93.4112H59.7117V97.3942H43.4374V110.501H38.8008V78.0815H61.7055V82.1108H43.4374Z" fill="white"/>
<path d="M17.2944 110.871C14.0179 110.871 11.066 110.161 8.43857 108.741C5.81117 107.29 3.74017 105.298 2.22556 102.767C0.741852 100.235 0 97.4097 0 94.2913C0 91.1729 0.741852 88.3478 2.22556 85.816C3.74017 83.2842 5.81117 81.3082 8.43857 79.8879C11.066 78.4368 14.0179 77.7112 17.2944 77.7112C20.54 77.7112 23.4765 78.4368 26.1039 79.8879C28.7313 81.3082 30.7869 83.2842 32.2706 85.816C33.7543 88.3169 34.4961 91.142 34.4961 94.2913C34.4961 97.4406 33.7543 100.281 32.2706 102.813C30.7869 105.314 28.7313 107.29 26.1039 108.741C23.4765 110.161 20.54 110.871 17.2944 110.871ZM17.2944 106.75C19.6745 106.75 21.8074 106.209 23.6929 105.129C25.6094 104.048 27.1085 102.566 28.1904 100.683C29.3032 98.7682 29.8595 96.6378 29.8595 94.2913C29.8595 91.9448 29.3032 89.8298 28.1904 87.9464C27.1085 86.0321 25.6094 84.5347 23.6929 83.454C21.8074 82.3734 19.6745 81.8331 17.2944 81.8331C14.9143 81.8331 12.7506 82.3734 10.8032 83.454C8.88677 84.5347 7.37216 86.0321 6.25938 87.9464C5.17751 89.8298 4.63658 91.9448 4.63658 94.2913C4.63658 96.6378 5.17751 98.7682 6.25938 100.683C7.37216 102.566 8.88677 104.048 10.8032 105.129C12.7506 106.209 14.9143 106.75 17.2944 106.75Z" fill="white"/>
<path d="M165.682 71.4598L158.68 61.5024C157.815 61.5642 157.135 61.5951 156.64 61.5951H148.619V71.4598H143.982V39.0405H156.64C160.844 39.0405 164.152 40.044 166.563 42.0509C168.974 44.0578 170.179 46.8211 170.179 50.3409C170.179 52.8419 169.561 54.9723 168.324 56.7322C167.088 58.4921 165.326 59.7734 163.039 60.5762L170.735 71.4598H165.682ZM156.501 57.6584C159.438 57.6584 161.679 57.0255 163.224 55.7596C164.77 54.4937 165.543 52.6875 165.543 50.3409C165.543 47.9944 164.77 46.2036 163.224 44.9686C161.679 43.7027 159.438 43.0698 156.501 43.0698H148.619V57.6584H156.501Z" fill="white"/>
<path d="M140.185 67.4305V71.4598H116.631V39.0405H139.536V43.0698H121.267V53.0271H137.542V56.9637H121.267V67.4305H140.185Z" fill="white"/>
<path d="M113.74 39.0405L102.891 71.4598H98.0224L89.1666 45.5707L80.3107 71.4598H75.3496L64.5 39.0405H69.2757L78.0388 65.3927L87.1729 39.0405H91.4385L100.387 65.5317L109.336 39.0405H113.74Z" fill="white"/>
<path d="M47.4194 71.8307C44.1429 71.8307 41.191 71.1205 38.5636 69.7003C35.9362 68.2491 33.8652 66.2576 32.3506 63.7259C30.8669 61.1941 30.125 58.369 30.125 55.2505C30.125 52.1321 30.8669 49.307 32.3506 46.7752C33.8652 44.2434 35.9362 42.2674 38.5636 40.8471C41.191 39.396 44.1429 38.6704 47.4194 38.6704C50.665 38.6704 53.6015 39.396 56.2289 40.8471C58.8563 42.2674 60.9119 44.2434 62.3956 46.7752C63.8793 49.2761 64.6211 52.1012 64.6211 55.2505C64.6211 58.3998 63.8793 61.2404 62.3956 63.7722C60.9119 66.2731 58.8563 68.2491 56.2289 69.7003C53.6015 71.1205 50.665 71.8307 47.4194 71.8307ZM47.4194 67.7088C49.7995 67.7088 51.9324 67.1685 53.8179 66.0878C55.7344 65.0072 57.2335 63.5252 58.3154 61.6418C59.4282 59.7275 59.9845 57.5971 59.9845 55.2505C59.9845 52.904 59.4282 50.789 58.3154 48.9056C57.2335 46.9913 55.7344 45.4939 53.8179 44.4132C51.9324 43.3326 49.7995 42.7923 47.4194 42.7923C45.0393 42.7923 42.8756 43.3326 40.9282 44.4132C39.0118 45.4939 37.4972 46.9913 36.3844 48.9056C35.3025 50.789 34.7616 52.904 34.7616 55.2505C34.7616 57.5971 35.3025 59.7275 36.3844 61.6418C37.4972 63.5252 39.0118 65.0072 40.9282 66.0878C42.8756 67.1685 45.0393 67.7088 47.4194 67.7088Z" fill="white"/>
<path d="M14.7457 39.0405C18.9496 39.0405 22.257 40.044 24.668 42.0509C27.079 44.0578 28.2845 46.8211 28.2845 50.3409C28.2845 53.8608 27.079 56.6241 24.668 58.631C22.257 60.6379 18.9496 61.6414 14.7457 61.6414H6.72447V71.4598H2.08789V39.0405H14.7457ZM14.6066 57.6121C17.5431 57.6121 19.7842 56.9946 21.3297 55.7596C22.8752 54.4937 23.648 52.6875 23.648 50.3409C23.648 47.9944 22.8752 46.2036 21.3297 44.9686C19.7842 43.7027 17.5431 43.0698 14.6066 43.0698H6.72447V57.6121H14.6066Z" fill="white"/>
<path d="M87.4132 28.39V32.4192H63.8594V0H86.7641V4.02925H68.496V13.9866H84.7703V17.9232H68.496V28.39H87.4132Z" fill="white"/>
<path d="M59.2462 0V32.4192H54.6096V17.9695H35.9706V32.4192H31.334V0H35.9706V13.9403H54.6096V0H59.2462Z" fill="white"/>
<path d="M12.4188 4.02925H1.29102V0H28.1368V4.02925H17.009V32.4192H12.4188V4.02925Z" fill="white"/>
</svg>
